<svg width="44" height="44" viewBox="0 0 44 44" fill="none" xmlns="http://www.w3.org/2000/svg">
<rect x="0.5" y="0.5" width="43" height="43" rx="11.5" stroke="#E3E3E3"/>
<mask id="mask0_421_2243" style="mask-type:luminance" maskUnits="userSpaceOnUse" x="24" y="12" width="9" height="9">
<path fill-rule="evenodd" clip-rule="evenodd" d="M24.354 12.0003H32.893V20.5331H24.354V12.0003Z" fill="white"/>
</mask>
<g mask="url(#mask0_421_2243)">
<path fill-rule="evenodd" clip-rule="evenodd" d="M32.1427 20.5331C31.7657 20.5331 31.4417 20.2501 31.3987 19.8671C31.0197 16.4911 28.3977 13.8711 25.0207 13.4961C24.6097 13.4501 24.3127 13.0801 24.3587 12.6681C24.4037 12.2571 24.7707 11.9541 25.1867 12.0061C29.2647 12.4591 32.4317 15.6221 32.8887 19.6991C32.9347 20.1111 32.6387 20.4821 32.2277 20.5281C32.1997 20.5311 32.1707 20.5331 32.1427 20.5331Z" fill="#2A2A2A"/>
</g>
<path fill-rule="evenodd" clip-rule="evenodd" d="M28.6026 20.5439C28.2506 20.5439 27.9376 20.2959 27.8676 19.9379C27.5796 18.4579 26.4386 17.3169 24.9606 17.0299C24.5536 16.9509 24.2886 16.5579 24.3676 16.1509C24.4466 15.7439 24.8466 15.4779 25.2466 15.5579C27.3276 15.9619 28.9346 17.5679 29.3396 19.6499C29.4186 20.0579 29.1536 20.4509 28.7476 20.5299C28.6986 20.5389 28.6506 20.5439 28.6026 20.5439Z" fill="#2A2A2A"/>
<path fill-rule="evenodd" clip-rule="evenodd" d="M13.2887 14.0879L13.3613 14.012C15.2887 12.0844 16.5438 11.5735 17.8831 12.3436C18.2683 12.5651 18.6295 12.8752 19.1205 13.374L20.6269 14.936C21.4589 15.8439 21.6481 16.7148 21.3772 17.7347L21.3398 17.8697L21.2984 18.0039L21.097 18.5947C20.666 19.9197 20.846 20.6673 22.3795 22.2004C23.9742 23.7947 24.7186 23.9251 26.1457 23.4264L26.4001 23.338L26.7077 23.2381L26.8423 23.2007C27.9263 22.9115 28.842 23.1423 29.8132 24.1128L31.0269 25.2852L31.3842 25.6366C31.7803 26.0405 32.0421 26.3606 32.2355 26.6989C33.0008 28.0377 32.4893 29.2921 30.5063 31.2677L30.3177 31.4589C30.0216 31.7442 29.745 31.9486 29.3386 32.1416C28.6565 32.4655 27.8506 32.5876 26.9142 32.4573C24.6067 32.1364 21.6802 30.3158 17.9719 26.6085C17.67 26.3067 17.3809 26.0107 17.1042 25.7205L16.5675 25.1476C11.5376 19.6828 11.0939 16.3259 13.1552 14.2205L13.2887 14.0879ZM17.9064 14.2809C17.5806 13.9597 17.344 13.7639 17.1353 13.644C16.6738 13.3786 16.1755 13.4907 15.2533 14.2845L14.9635 14.5433C14.913 14.59 14.8613 14.6384 14.8084 14.6887L14.4761 15.0123L14.4462 15.0497L14.2209 15.276C13.6766 15.832 13.4187 16.5106 13.6409 17.6777C14.0055 19.5927 15.6744 22.1905 19.0324 25.5477C22.5313 29.0456 25.1972 30.7041 27.1208 30.9716C28.2422 31.1276 28.8142 30.856 29.3975 30.2584L29.8424 29.8095C30.051 29.5912 30.2292 29.3933 30.3797 29.2126L30.585 28.9539C31.1097 28.2551 31.1576 27.8358 30.9332 27.4433C30.8479 27.2939 30.7237 27.1302 30.5429 26.93L30.2977 26.671L30.1525 26.5258L28.6213 25.0472C28.1096 24.5753 27.7599 24.5084 27.229 24.65L27.0757 24.6941L26.4414 24.9094C24.6013 25.5037 23.2738 25.2155 21.3189 23.2612C19.2943 21.237 19.0568 19.8854 19.7352 17.9392L19.7787 17.8141L19.8991 17.4515L19.9582 17.2204C20.0631 16.7175 19.9434 16.3668 19.4027 15.826C19.3804 15.8037 19.3555 15.7787 19.3285 15.7512L17.9064 14.2809Z" fill="#2A2A2A"/>
</svg>
